<mxfile host="app.diagrams.net" modified="2023-12-15T07:47:34.783Z" agent="Mozilla/5.0 (Windows NT 10.0; Win64; x64) AppleWebKit/537.36 (KHTML, like Gecko) Chrome/119.0.0.0 Safari/537.36" etag="MeuKcnlE5BVUtNvio3DD" version="22.1.8" type="github">
  <diagram name="Page-1" id="IsWL-GtrTdSx7D06g6m8">
    <mxGraphModel dx="1836" dy="1824" grid="1" gridSize="10" guides="1" tooltips="1" connect="1" arrows="1" fold="1" page="1" pageScale="1" pageWidth="850" pageHeight="1100" math="0" shadow="0">
      <root>
        <mxCell id="0" />
        <mxCell id="1" parent="0" />
        <mxCell id="XDsXx_7p1bTsNnoB1rUd-33" value="" style="rounded=1;whiteSpace=wrap;html=1;" parent="1" vertex="1">
          <mxGeometry x="80" y="-300" width="1180" height="700" as="geometry" />
        </mxCell>
        <mxCell id="XDsXx_7p1bTsNnoB1rUd-30" value="" style="rounded=1;whiteSpace=wrap;html=1;dashed=1;strokeWidth=2;" parent="1" vertex="1">
          <mxGeometry x="170" y="-160" width="750" height="500" as="geometry" />
        </mxCell>
        <mxCell id="XDsXx_7p1bTsNnoB1rUd-1" value="Pod1&lt;br&gt;App1:8080" style="ellipse;whiteSpace=wrap;html=1;aspect=fixed;" parent="1" vertex="1">
          <mxGeometry x="180" y="230" width="80" height="80" as="geometry" />
        </mxCell>
        <mxCell id="XDsXx_7p1bTsNnoB1rUd-2" value="Pod2&lt;br&gt;App1:8080" style="ellipse;whiteSpace=wrap;html=1;aspect=fixed;" parent="1" vertex="1">
          <mxGeometry x="300" y="230" width="80" height="80" as="geometry" />
        </mxCell>
        <mxCell id="XDsXx_7p1bTsNnoB1rUd-3" value="Pod3&lt;br&gt;App1:8080" style="ellipse;whiteSpace=wrap;html=1;aspect=fixed;" parent="1" vertex="1">
          <mxGeometry x="425" y="230" width="80" height="80" as="geometry" />
        </mxCell>
        <mxCell id="XDsXx_7p1bTsNnoB1rUd-4" value="Pod4&lt;br&gt;App2" style="ellipse;whiteSpace=wrap;html=1;aspect=fixed;" parent="1" vertex="1">
          <mxGeometry x="570" y="230" width="80" height="80" as="geometry" />
        </mxCell>
        <mxCell id="XDsXx_7p1bTsNnoB1rUd-5" value="Pod5&lt;br&gt;App2" style="ellipse;whiteSpace=wrap;html=1;aspect=fixed;" parent="1" vertex="1">
          <mxGeometry x="700" y="230" width="80" height="80" as="geometry" />
        </mxCell>
        <mxCell id="XDsXx_7p1bTsNnoB1rUd-6" value="Pod6&lt;br&gt;App2" style="ellipse;whiteSpace=wrap;html=1;aspect=fixed;" parent="1" vertex="1">
          <mxGeometry x="815" y="230" width="80" height="80" as="geometry" />
        </mxCell>
        <mxCell id="XDsXx_7p1bTsNnoB1rUd-7" value="&lt;br&gt;&lt;br&gt;User" style="shape=actor;whiteSpace=wrap;html=1;" parent="1" vertex="1">
          <mxGeometry x="535.5" y="-590" width="40" height="60" as="geometry" />
        </mxCell>
        <mxCell id="XDsXx_7p1bTsNnoB1rUd-11" style="edgeStyle=orthogonalEdgeStyle;rounded=0;orthogonalLoop=1;jettySize=auto;html=1;entryX=0.5;entryY=0;entryDx=0;entryDy=0;" parent="1" source="XDsXx_7p1bTsNnoB1rUd-8" target="XDsXx_7p1bTsNnoB1rUd-3" edge="1">
          <mxGeometry relative="1" as="geometry" />
        </mxCell>
        <mxCell id="XDsXx_7p1bTsNnoB1rUd-20" style="edgeStyle=orthogonalEdgeStyle;rounded=0;orthogonalLoop=1;jettySize=auto;html=1;entryX=1;entryY=0.5;entryDx=0;entryDy=0;" parent="1" source="XDsXx_7p1bTsNnoB1rUd-8" target="XDsXx_7p1bTsNnoB1rUd-17" edge="1">
          <mxGeometry relative="1" as="geometry" />
        </mxCell>
        <mxCell id="XDsXx_7p1bTsNnoB1rUd-21" style="edgeStyle=orthogonalEdgeStyle;rounded=0;orthogonalLoop=1;jettySize=auto;html=1;entryX=1;entryY=0.5;entryDx=0;entryDy=0;" parent="1" source="XDsXx_7p1bTsNnoB1rUd-8" target="XDsXx_7p1bTsNnoB1rUd-16" edge="1">
          <mxGeometry relative="1" as="geometry" />
        </mxCell>
        <mxCell id="XDsXx_7p1bTsNnoB1rUd-8" value="Service 1" style="whiteSpace=wrap;html=1;aspect=fixed;" parent="1" vertex="1">
          <mxGeometry x="300" y="70" width="80" height="80" as="geometry" />
        </mxCell>
        <mxCell id="XDsXx_7p1bTsNnoB1rUd-9" style="edgeStyle=orthogonalEdgeStyle;rounded=0;orthogonalLoop=1;jettySize=auto;html=1;entryX=0.42;entryY=-0.047;entryDx=0;entryDy=0;entryPerimeter=0;" parent="1" source="XDsXx_7p1bTsNnoB1rUd-8" target="XDsXx_7p1bTsNnoB1rUd-1" edge="1">
          <mxGeometry relative="1" as="geometry" />
        </mxCell>
        <mxCell id="XDsXx_7p1bTsNnoB1rUd-10" style="edgeStyle=orthogonalEdgeStyle;rounded=0;orthogonalLoop=1;jettySize=auto;html=1;entryX=0.5;entryY=0;entryDx=0;entryDy=0;" parent="1" source="XDsXx_7p1bTsNnoB1rUd-8" target="XDsXx_7p1bTsNnoB1rUd-2" edge="1">
          <mxGeometry relative="1" as="geometry" />
        </mxCell>
        <mxCell id="XDsXx_7p1bTsNnoB1rUd-14" style="edgeStyle=orthogonalEdgeStyle;rounded=0;orthogonalLoop=1;jettySize=auto;html=1;entryX=0.5;entryY=0;entryDx=0;entryDy=0;" parent="1" source="XDsXx_7p1bTsNnoB1rUd-12" target="XDsXx_7p1bTsNnoB1rUd-5" edge="1">
          <mxGeometry relative="1" as="geometry" />
        </mxCell>
        <mxCell id="XDsXx_7p1bTsNnoB1rUd-15" style="edgeStyle=orthogonalEdgeStyle;rounded=0;orthogonalLoop=1;jettySize=auto;html=1;entryX=0.5;entryY=0;entryDx=0;entryDy=0;" parent="1" source="XDsXx_7p1bTsNnoB1rUd-12" target="XDsXx_7p1bTsNnoB1rUd-6" edge="1">
          <mxGeometry relative="1" as="geometry" />
        </mxCell>
        <mxCell id="XDsXx_7p1bTsNnoB1rUd-12" value="Service 2" style="whiteSpace=wrap;html=1;aspect=fixed;" parent="1" vertex="1">
          <mxGeometry x="700" y="70" width="80" height="80" as="geometry" />
        </mxCell>
        <mxCell id="XDsXx_7p1bTsNnoB1rUd-13" style="edgeStyle=orthogonalEdgeStyle;rounded=0;orthogonalLoop=1;jettySize=auto;html=1;entryX=0.394;entryY=-0.031;entryDx=0;entryDy=0;entryPerimeter=0;" parent="1" source="XDsXx_7p1bTsNnoB1rUd-12" target="XDsXx_7p1bTsNnoB1rUd-4" edge="1">
          <mxGeometry relative="1" as="geometry" />
        </mxCell>
        <mxCell id="XDsXx_7p1bTsNnoB1rUd-16" value="ClusterIp" style="ellipse;whiteSpace=wrap;html=1;" parent="1" vertex="1">
          <mxGeometry x="40" y="-90" width="80" height="50" as="geometry" />
        </mxCell>
        <mxCell id="XDsXx_7p1bTsNnoB1rUd-17" value="NodePort" style="ellipse;whiteSpace=wrap;html=1;" parent="1" vertex="1">
          <mxGeometry x="40" y="-20" width="80" height="50" as="geometry" />
        </mxCell>
        <mxCell id="XDsXx_7p1bTsNnoB1rUd-18" value="LoadBalancer" style="ellipse;whiteSpace=wrap;html=1;" parent="1" vertex="1">
          <mxGeometry x="40" y="50" width="80" height="50" as="geometry" />
        </mxCell>
        <mxCell id="XDsXx_7p1bTsNnoB1rUd-19" style="edgeStyle=orthogonalEdgeStyle;rounded=0;orthogonalLoop=1;jettySize=auto;html=1;entryX=1.013;entryY=0.362;entryDx=0;entryDy=0;entryPerimeter=0;" parent="1" source="XDsXx_7p1bTsNnoB1rUd-8" target="XDsXx_7p1bTsNnoB1rUd-18" edge="1">
          <mxGeometry relative="1" as="geometry" />
        </mxCell>
        <mxCell id="XDsXx_7p1bTsNnoB1rUd-23" style="edgeStyle=orthogonalEdgeStyle;rounded=0;orthogonalLoop=1;jettySize=auto;html=1;entryX=0.5;entryY=0;entryDx=0;entryDy=0;" parent="1" source="XDsXx_7p1bTsNnoB1rUd-22" target="XDsXx_7p1bTsNnoB1rUd-8" edge="1">
          <mxGeometry relative="1" as="geometry" />
        </mxCell>
        <mxCell id="XDsXx_7p1bTsNnoB1rUd-24" style="edgeStyle=orthogonalEdgeStyle;rounded=0;orthogonalLoop=1;jettySize=auto;html=1;entryX=0.5;entryY=0;entryDx=0;entryDy=0;" parent="1" source="XDsXx_7p1bTsNnoB1rUd-22" target="XDsXx_7p1bTsNnoB1rUd-12" edge="1">
          <mxGeometry relative="1" as="geometry" />
        </mxCell>
        <mxCell id="XDsXx_7p1bTsNnoB1rUd-22" value="Ingress controller" style="rounded=1;whiteSpace=wrap;html=1;" parent="1" vertex="1">
          <mxGeometry x="330" y="-130" width="420" height="60" as="geometry" />
        </mxCell>
        <mxCell id="XDsXx_7p1bTsNnoB1rUd-28" style="edgeStyle=orthogonalEdgeStyle;rounded=0;orthogonalLoop=1;jettySize=auto;html=1;entryX=0.5;entryY=0;entryDx=0;entryDy=0;" parent="1" source="XDsXx_7p1bTsNnoB1rUd-25" target="XDsXx_7p1bTsNnoB1rUd-22" edge="1">
          <mxGeometry relative="1" as="geometry" />
        </mxCell>
        <mxCell id="XDsXx_7p1bTsNnoB1rUd-25" value="Load Balancer" style="whiteSpace=wrap;html=1;rounded=1;" parent="1" vertex="1">
          <mxGeometry x="480" y="-270" width="120" height="60" as="geometry" />
        </mxCell>
        <mxCell id="TTnHsoKngoKg_dBDqmUB-1" style="edgeStyle=orthogonalEdgeStyle;rounded=0;orthogonalLoop=1;jettySize=auto;html=1;entryX=1;entryY=0.5;entryDx=0;entryDy=0;" edge="1" parent="1" source="XDsXx_7p1bTsNnoB1rUd-31" target="XDsXx_7p1bTsNnoB1rUd-30">
          <mxGeometry relative="1" as="geometry" />
        </mxCell>
        <mxCell id="XDsXx_7p1bTsNnoB1rUd-31" value="Control Panel" style="rounded=1;whiteSpace=wrap;html=1;" parent="1" vertex="1">
          <mxGeometry x="1070" y="-165" width="120" height="510" as="geometry" />
        </mxCell>
        <mxCell id="XDsXx_7p1bTsNnoB1rUd-34" value="EKS/AKE/GKE" style="text;html=1;strokeColor=none;fillColor=none;align=center;verticalAlign=middle;whiteSpace=wrap;rounded=0;" parent="1" vertex="1">
          <mxGeometry x="330" y="-330" width="175" height="30" as="geometry" />
        </mxCell>
        <mxCell id="XDsXx_7p1bTsNnoB1rUd-35" value="Kubelet&lt;br&gt;" style="ellipse;whiteSpace=wrap;html=1;" parent="1" vertex="1">
          <mxGeometry x="1090" y="130" width="80" height="80" as="geometry" />
        </mxCell>
        <mxCell id="XDsXx_7p1bTsNnoB1rUd-38" style="edgeStyle=orthogonalEdgeStyle;rounded=0;orthogonalLoop=1;jettySize=auto;html=1;entryX=0.641;entryY=-0.109;entryDx=0;entryDy=0;entryPerimeter=0;" parent="1" source="XDsXx_7p1bTsNnoB1rUd-36" target="XDsXx_7p1bTsNnoB1rUd-25" edge="1">
          <mxGeometry relative="1" as="geometry">
            <mxPoint x="540" y="-310" as="targetPoint" />
          </mxGeometry>
        </mxCell>
        <mxCell id="XDsXx_7p1bTsNnoB1rUd-36" value="ROUTE-53" style="outlineConnect=0;dashed=0;verticalLabelPosition=bottom;verticalAlign=top;align=center;html=1;shape=mxgraph.aws3.route_53;fillColor=#F58536;gradientColor=none;" parent="1" vertex="1">
          <mxGeometry x="520.25" y="-460" width="70.5" height="85.5" as="geometry" />
        </mxCell>
        <mxCell id="XDsXx_7p1bTsNnoB1rUd-37" style="edgeStyle=orthogonalEdgeStyle;rounded=0;orthogonalLoop=1;jettySize=auto;html=1;entryX=0.5;entryY=0;entryDx=0;entryDy=0;entryPerimeter=0;" parent="1" source="XDsXx_7p1bTsNnoB1rUd-7" target="XDsXx_7p1bTsNnoB1rUd-36" edge="1">
          <mxGeometry relative="1" as="geometry" />
        </mxCell>
      </root>
    </mxGraphModel>
  </diagram>
</mxfile>
